<svg width="30" height="25" viewBox="0 0 30 25" fill="none" xmlns="http://www.w3.org/2000/svg">
<path fill-rule="evenodd" clip-rule="evenodd" d="M29.48 3.85002C28.55 4.27002 27.53 4.52002 26.53 4.69002C27 4.61002 27.71 3.75002 27.98 3.40002C28.41 2.87002 28.76 2.27002 28.96 1.61002C28.99 1.56002 29 1.49002 28.96 1.46002C28.9 1.43002 28.85 1.45002 28.8 1.47002C27.68 2.07002 26.53 2.50002 25.3 2.81002C25.2 2.84002 25.12 2.81002 25.06 2.75002C24.96 2.64002 24.86 2.53002 24.75 2.44002C23.51 1.38002 21.92 0.900018 20.35 1.01002C20.35 1.01002 20.36 1.01002 20.37 1.01002H20.25C20.25 1.01002 20.28 1.01002 20.29 1.02002C19.42 1.09002 18.56 1.34002 17.77 1.79002C15.47 3.09002 14.36 5.64002 14.74 8.20002C14.76 8.34002 14.74 8.36002 14.62 8.34002C9.80999 7.62002 5.81999 5.90002 2.58999 2.21002C2.44999 2.05002 2.36999 2.05002 2.25999 2.22002C0.839994 4.34002 1.52999 7.75002 3.29999 9.43002C3.53999 9.65002 3.77999 9.88002 4.03999 10.08C3.93999 10.1 2.76999 9.97002 1.71999 9.43002C1.57999 9.34002 1.50999 9.39002 1.49999 9.55002C1.48999 9.78002 1.49999 9.99002 1.53999 10.24C1.80999 12.39 3.29999 14.38 5.33999 15.16C5.57999 15.26 5.84999 15.35 6.10999 15.4C5.64999 15.5 5.16999 15.57 3.82999 15.47C3.65999 15.44 3.59999 15.52 3.65999 15.68C4.65999 18.41 6.82999 19.22 8.44999 19.69C8.66999 19.73 8.87999 19.73 9.09999 19.78C9.08999 19.8 9.06999 19.8 9.05999 19.82C8.51999 20.64 6.65999 21.25 5.78999 21.55C4.20999 22.1 2.48999 22.35 0.829994 22.19C0.559994 22.15 0.509994 22.15 0.429994 22.19C0.359994 22.24 0.429994 22.3 0.509994 22.37C0.849994 22.59 1.18999 22.79 1.53999 22.98C2.59999 23.54 3.69999 23.99 4.85999 24.31C11.57 26.16 18.95 24.28 23.26 18.65C25.79 15.35 26.77 11.27 26.77 7.17002C26.77 6.98002 26.99 6.88002 27.13 6.78002C28.04 6.09002 28.77 5.27002 29.45 4.35002C29.6 4.14002 29.59 3.96002 29.59 3.88002V3.85002C29.59 3.77002 29.59 3.80002 29.48 3.85002Z" fill="#F5F5F5"/>
</svg>
